<svg width="1494" height="1144" viewBox="0 0 1494 1144" fill="none" xmlns="http://www.w3.org/2000/svg">
<path d="M779.2 432.95C721.243 427.262 668.437 387.127 652.66 336.88C645.255 313.81 642.679 273.675 646.865 248.709C658.134 182.345 707.719 137.47 779.522 128.937C819.769 123.881 849.714 128.621 884.166 145.37C937.937 171.284 962.73 213.947 962.73 281.26C962.73 329.927 952.748 355.841 922.804 387.759C913.144 398.188 898.011 410.197 889.318 414.937C860.983 430.106 818.803 437.059 779.2 432.95ZM830.717 357.421C849.714 343.832 859.695 317.918 859.695 281.26C859.695 228.8 839.088 195.934 805.602 195.934C788.537 195.934 775.658 202.254 765.032 215.527C753.441 231.012 749.255 251.238 750.543 289.792C751.831 320.13 752.797 325.503 760.525 338.46C769.218 352.997 778.878 361.213 790.469 364.374C801.094 367.218 822.023 363.742 830.717 357.421Z" fill="#040303"/>
<path d="M1097 432.953C1071.56 429.793 1049.02 419.996 1040.33 408.303C1029.06 392.502 1026.8 375.753 1024.87 286.951L1022.94 199.097H1000.72H978.829V169.391V139.368L1001.37 137.156L1023.91 134.944V103.026C1023.91 82.1685 1025.19 68.8955 1028.09 65.7353C1031.31 60.995 1038.07 60.679 1079.29 62.2591L1126.62 64.1552L1127.58 100.814L1128.55 137.472L1161.71 138.42L1194.56 139.368L1193.59 168.442L1192.95 197.516L1161.71 198.465L1130.8 199.413L1128.55 223.43C1125.65 252.82 1129.52 342.887 1134.02 352.683C1138.21 361.848 1143.04 363.744 1167.19 366.272L1186.51 368.168V399.139V429.793L1176.85 431.373C1154.95 434.533 1117.6 435.165 1097 432.953Z" fill="#040303"/>
<path d="M235.048 238.597V50.5642H298.801L362.232 50.8802L411.495 139.998C472.028 249.658 495.532 291.373 499.396 295.165C501.006 297.061 502.294 247.762 502.294 174.445V50.5642H552.201H602.109V238.597V426.631L535.458 425.998L469.13 425.05L404.089 309.07C368.671 245.234 338.405 192.142 337.117 190.878C335.829 189.614 334.863 242.074 334.863 307.49V426.631H284.956H235.048V238.597Z" fill="#040303"/>
<path d="M994.922 1007.8C948.878 1000.22 923.442 989.473 904.123 969.564C889.311 954.711 875.788 926.585 875.788 911.099V899.091H924.086C963.689 899.091 972.383 900.039 972.383 903.515C972.383 906.043 975.925 912.364 980.433 917.42C990.414 929.429 1011.66 935.117 1036.46 932.905C1074.77 929.745 1090.23 912.996 1093.77 871.281C1094.74 856.428 1094.41 845.367 1092.8 845.367C1091.19 845.683 1086.04 851.055 1081.54 857.692C1070.91 872.545 1057.06 879.181 1026.15 883.922C927.627 898.775 856.791 824.825 869.349 719.906C879.652 632.368 934.389 585.597 1020.68 590.337C1063.18 592.865 1074.13 596.973 1085.4 614.671L1094.74 628.892V612.459V595.709H1146.25H1197.77V743.608C1197.77 883.606 1197.45 892.77 1191.33 910.151C1181.99 936.697 1171.37 953.13 1153.02 969.564C1134.02 985.997 1115.02 995.477 1087.01 1001.8C1066.08 1006.54 1009.09 1010.33 994.922 1007.8ZM1059 810.604C1075.1 802.704 1087.33 788.167 1090.55 773.314C1091.84 766.993 1092.8 748.032 1092.8 731.599C1093.13 705.369 1092.16 699.997 1085.4 688.304C1080.89 680.719 1071.88 670.923 1064.79 666.182C1040.97 650.065 1002.33 657.65 984.618 681.667C977.857 691.148 977.213 696.204 976.247 733.179C975.281 773.946 975.281 774.262 984.618 788.799C1001.36 814.397 1033.24 823.877 1059 810.604Z" fill="#F95C61"/>
<path d="M230.534 891.195C160.02 873.498 110.435 823.566 94.9795 754.99C86.6079 719.595 89.5057 659.551 100.775 625.736C121.06 565.692 170.645 521.765 233.432 508.808C261.767 502.804 310.708 502.804 338.398 508.492C385.73 518.289 435.959 553.999 456.566 591.922C475.241 626.685 481.359 652.598 481.359 698.422C481.359 745.193 477.495 763.838 461.396 797.337C441.111 839.684 400.541 873.182 351.922 888.351C328.739 895.303 254.683 897.2 230.534 891.195ZM323.587 814.086C339.686 807.133 355.785 789.12 366.733 766.366C374.46 749.933 375.104 746.141 375.104 700.002C375.104 652.598 374.782 650.386 365.767 631.109C342.906 582.441 291.711 564.428 244.379 587.814C217.655 601.087 201.878 628.581 196.082 671.876C187.067 736.344 208.639 795.44 247.921 814.402C263.698 821.986 306.2 821.986 323.587 814.086Z" fill="#F95C61"/>
<path d="M524.828 742.665V595.715H576.345H627.54L628.506 616.256L629.472 636.482L640.742 620.997C658.773 596.347 672.618 590.975 719.628 590.975C755.368 590.975 759.554 591.607 776.619 599.823C796.26 609.304 807.851 620.681 818.476 641.222C827.17 657.655 829.424 698.106 828.136 809.346L827.492 889.616H777.907H728.321L727.033 791.017C726.067 693.366 725.745 691.786 718.34 678.829C709.324 663.344 695.479 657.339 675.516 659.867C637.2 664.924 628.184 695.894 627.862 825.779V889.616H576.345H524.828V742.665Z" fill="#F95C61"/>
</svg>
